<svg width="512" height="16" viewBox="0 0 512 16" fill="none" xmlns="http://www.w3.org/2000/svg">
<rect x="6" y="7" width="468" height="2" rx="1" fill="white"/>
<circle cx="6" cy="8" r="6" fill="#8064A2"/>
<path d="M486.744 7.572C486.744 6.196 486.968 5.124 487.416 4.356C487.864 3.58 488.648 3.192 489.768 3.192C490.88 3.192 491.66 3.58 492.108 4.356C492.556 5.124 492.78 6.196 492.78 7.572C492.78 8.972 492.556 10.06 492.108 10.836C491.66 11.612 490.88 12 489.768 12C488.648 12 487.864 11.612 487.416 10.836C486.968 10.06 486.744 8.972 486.744 7.572ZM491.7 7.572C491.7 6.876 491.652 6.288 491.556 5.808C491.468 5.32 491.28 4.928 490.992 4.632C490.712 4.336 490.304 4.188 489.768 4.188C489.224 4.188 488.808 4.336 488.52 4.632C488.24 4.928 488.052 5.32 487.956 5.808C487.868 6.288 487.824 6.876 487.824 7.572C487.824 8.292 487.868 8.896 487.956 9.384C488.052 9.872 488.24 10.264 488.52 10.56C488.808 10.856 489.224 11.004 489.768 11.004C490.304 11.004 490.712 10.856 490.992 10.56C491.28 10.264 491.468 9.872 491.556 9.384C491.652 8.896 491.7 8.292 491.7 7.572ZM494.807 12.072C494.599 12.072 494.423 12 494.279 11.856C494.135 11.712 494.063 11.536 494.063 11.328C494.063 11.12 494.135 10.944 494.279 10.8C494.423 10.656 494.599 10.584 494.807 10.584C495.007 10.584 495.175 10.656 495.311 10.8C495.455 10.944 495.527 11.12 495.527 11.328C495.527 11.536 495.455 11.712 495.311 11.856C495.175 12 495.007 12.072 494.807 12.072ZM494.807 6.936C494.599 6.936 494.423 6.864 494.279 6.72C494.135 6.576 494.063 6.4 494.063 6.192C494.063 5.984 494.135 5.808 494.279 5.664C494.423 5.52 494.599 5.448 494.807 5.448C495.007 5.448 495.175 5.52 495.311 5.664C495.455 5.808 495.527 5.984 495.527 6.192C495.527 6.4 495.455 6.576 495.311 6.72C495.175 6.864 495.007 6.936 494.807 6.936ZM496.834 7.572C496.834 6.196 497.058 5.124 497.506 4.356C497.954 3.58 498.738 3.192 499.858 3.192C500.97 3.192 501.75 3.58 502.198 4.356C502.646 5.124 502.87 6.196 502.87 7.572C502.87 8.972 502.646 10.06 502.198 10.836C501.75 11.612 500.97 12 499.858 12C498.738 12 497.954 11.612 497.506 10.836C497.058 10.06 496.834 8.972 496.834 7.572ZM501.79 7.572C501.79 6.876 501.742 6.288 501.646 5.808C501.558 5.32 501.37 4.928 501.082 4.632C500.802 4.336 500.394 4.188 499.858 4.188C499.314 4.188 498.898 4.336 498.61 4.632C498.33 4.928 498.142 5.32 498.046 5.808C497.958 6.288 497.914 6.876 497.914 7.572C497.914 8.292 497.958 8.896 498.046 9.384C498.142 9.872 498.33 10.264 498.61 10.56C498.898 10.856 499.314 11.004 499.858 11.004C500.394 11.004 500.802 10.856 501.082 10.56C501.37 10.264 501.558 9.872 501.646 9.384C501.742 8.896 501.79 8.292 501.79 7.572ZM504.369 7.572C504.369 6.196 504.593 5.124 505.041 4.356C505.489 3.58 506.273 3.192 507.393 3.192C508.505 3.192 509.285 3.58 509.733 4.356C510.181 5.124 510.405 6.196 510.405 7.572C510.405 8.972 510.181 10.06 509.733 10.836C509.285 11.612 508.505 12 507.393 12C506.273 12 505.489 11.612 505.041 10.836C504.593 10.06 504.369 8.972 504.369 7.572ZM509.325 7.572C509.325 6.876 509.277 6.288 509.181 5.808C509.093 5.32 508.905 4.928 508.617 4.632C508.337 4.336 507.929 4.188 507.393 4.188C506.849 4.188 506.433 4.336 506.145 4.632C505.865 4.928 505.677 5.32 505.581 5.808C505.493 6.288 505.449 6.876 505.449 7.572C505.449 8.292 505.493 8.896 505.581 9.384C505.677 9.872 505.865 10.264 506.145 10.56C506.433 10.856 506.849 11.004 507.393 11.004C507.929 11.004 508.337 10.856 508.617 10.56C508.905 10.264 509.093 9.872 509.181 9.384C509.277 8.896 509.325 8.292 509.325 7.572Z" fill="#8064A2"/>
</svg>
